<?xml version="1.0" encoding="UTF-8" standalone="no"?>
<!-- Created with Inkscape (http://www.inkscape.org/) -->

<svg
   xmlns:dc="http://purl.org/dc/elements/1.1/"
   xmlns:cc="http://creativecommons.org/ns#"
   xmlns:rdf="http://www.w3.org/1999/02/22-rdf-syntax-ns#"
   xmlns:svg="http://www.w3.org/2000/svg"
   xmlns="http://www.w3.org/2000/svg"
   xmlns:sodipodi="http://sodipodi.sourceforge.net/DTD/sodipodi-0.dtd"
   xmlns:inkscape="http://www.inkscape.org/namespaces/inkscape"
   version="1.1"
   id="svg38"
   width="1000"
   height="500"
   viewBox="0 0 1000 500"
   sodipodi:docname="right.svg"
   inkscape:version="0.92.2 (5c3e80d, 2017-08-06)">
  <metadata
     id="metadata44">
    <rdf:RDF>
      <cc:Work
         rdf:about="">
        <dc:format>image/svg+xml</dc:format>
        <dc:type
           rdf:resource="http://purl.org/dc/dcmitype/StillImage" />
        <dc:title></dc:title>
      </cc:Work>
    </rdf:RDF>
  </metadata>
  <defs
     id="defs42" />
  <sodipodi:namedview
     pagecolor="#ffffff"
     bordercolor="#666666"
     borderopacity="1"
     objecttolerance="10"
     gridtolerance="10"
     guidetolerance="10"
     inkscape:pageopacity="0"
     inkscape:pageshadow="2"
     inkscape:window-width="1280"
     inkscape:window-height="657"
     id="namedview40"
     showgrid="false"
     inkscape:zoom="0.88812612"
     inkscape:cx="616.11652"
     inkscape:cy="285.0039"
     inkscape:window-x="-8"
     inkscape:window-y="-8"
     inkscape:window-maximized="1"
     inkscape:current-layer="svg38" />
  <path
     style="fill:#000000;stroke-width:0.65743822"
     d="m 492.15861,110.85319 c 1.80795,0.12595 7.87287,0.5437 13.47749,0.92834 21.58145,1.48132 32.98777,3.06431 47.00684,6.52393 14.59325,3.60129 17.93797,4.97949 59.54745,24.53733 23.34801,10.97435 34.21513,16.51548 49.22506,25.09963 23.40875,13.38732 39.7046,23.15166 45.32181,27.15608 l 4.19846,2.99303 4.19637,-2.06937 c 5.05044,-2.49047 6.0903,-2.54042 9.64265,-0.46278 3.45759,2.02209 5.51065,2.47212 24.27354,5.31925 45.45376,6.89757 110.92839,18.99123 131.98448,24.3787 13.64638,3.49155 24.13739,9.25397 27.42808,15.06538 1.96685,3.47375 5.03276,12.79992 7.08941,21.56628 2.70457,11.52782 3.65833,12.87011 9.88301,13.90828 4.18183,0.69747 6.29083,1.74337 6.93572,3.43931 0.33115,0.87103 0.60213,6.57112 0.60213,12.66691 0,10.81574 -0.0393,11.12962 -1.61781,13.00582 -2.07021,2.46032 -2.94809,6.33587 -2.96822,13.1041 -0.0191,6.48943 -0.80219,8.46569 -3.78,9.54241 -1.37581,0.49755 -3.08384,1.98178 -4.41876,3.83987 -1.37174,1.90941 -3.27701,3.54635 -5.15518,4.42918 -5.55305,2.61021 -18.38737,4.53154 -42.87312,6.41823 -8.6014,0.66277 -14.4465,1.68843 -24.38624,4.27902 -5.45746,1.42238 -10.83991,2.5862 -11.96098,2.58619 -3.15124,-2e-5 -4.08518,-1.91244 -4.08518,-8.3643 l -8e-5,-5.44192 -5.50006,-1e-5 -5.5002,1e-5 -1.48784,4.10895 c -3.56206,9.8368 -8.45596,17.58092 -15.73176,24.89353 -8.5375,8.58072 -20.17712,15.16885 -30.6054,17.32287 -7.35609,1.51941 -22.84205,1.36027 -29.79341,-0.30622 -20.79752,-4.98594 -37.72058,-20.07694 -45.52351,-40.59525 l -2.06272,-5.42388 -3.84976,10e-6 c -3.19777,-2e-5 -4.018,0.24014 -4.84288,1.41788 -0.9521,1.35921 -1.64076,1.43826 -16.63767,1.90998 -21.1246,0.66442 -335.13245,1.56093 -338.64885,0.96686 -2.16683,-0.3661 -3.0042,-0.89478 -3.77361,-2.38262 -0.86191,-1.66682 -1.35585,-1.91213 -3.84982,-1.91212 -3.40907,1e-5 -3.84311,0.45826 -5.2935,5.58822 -3.88788,13.7513 -18.68837,30.00856 -33.58579,36.89164 -8.70475,4.02182 -16.35673,5.67508 -26.59943,5.74713 -9.07626,0.0638 -13.36388,-0.54712 -21.03802,-2.99788 -16.3497,-5.22116 -30.56191,-17.91656 -37.94413,-33.89432 -2.27917,-4.93295 -5.44683,-15.99828 -5.44683,-19.02695 0,-1.57068 -0.0845,-1.59636 -3.78022,-1.14824 -2.07915,0.25208 -3.86981,0.53534 -3.97899,0.62951 -0.10905,0.0942 -0.31365,1.5822 -0.45428,3.30684 -0.42051,5.16142 -0.98962,5.34727 -9.29282,3.03576 -14.4493,-4.0225 -19.77424,-4.7229 -53.16828,-6.99314 -33.901865,-2.3049 -33.868935,-2.30155 -36.927425,-3.73012 -1.50726,-0.70403 -3.9778,-2.62238 -5.49007,-4.26302 -2.36079,-2.56123 -2.69539,-3.27683 -2.36674,-5.0624 1.38796,-7.54239 1.30439,-8.53669 -1.4694,-17.45882 -3.34523,-10.75973 -4.29515,-16.07355 -3.88894,-21.75194 0.40873,-5.71039 2.84866,-10.27867 7.78167,-14.56928 l 3.68504,-3.20513 0.7846,-8.3776 c 1.254,-13.38745 3.27741,-24.22335 6.10697,-32.70273 l 2.63241,-7.88927 -0.21642,-10.01012 -0.21643,-10.01012 1.97336,-1.96408 c 3.47474,-3.4617 9.639945,-4.37757 49.301975,-7.32195 l 19.05986,-1.41499 10.8536,-5.43214 c 40.95678,-20.49868 70.29223,-33.5407 92.39899,-41.07908 22.96136,-7.82983 38.69404,-11.26213 69.44128,-15.14989 31.8413,-4.02583 32.28072,-4.04555 94.5665,-4.24173 31.63923,-0.0995 59.0051,-0.0781 60.81308,0.0479 z m -96.13663,1.31712 c 0.21846,0.21846 0.78548,0.2417 1.26005,0.0519 0.52442,-0.20985 0.36717,-0.36717 -0.39716,-0.3971 -0.69305,-0.0283 -1.0814,0.12681 -0.86291,0.34522 z m 101.5605,1.35296 c 0.45201,0.18238 1.19162,0.18249 1.64359,1e-4 0.452,-0.18236 0.0821,-0.33167 -0.8218,-0.33169 -0.90398,0 -1.27375,0.1493 -0.82179,0.33159 z m -114.47311,1.54501 c -21.3742,0.86315 -55.40068,4.75013 -57.18274,6.53224 -1.20729,1.20726 5.78793,0.7982 21.99567,-1.28608 26.97949,-3.46969 33.41756,-3.87605 68.35995,-4.31483 65.16223,-0.81824 101.53454,1.54547 123.23373,8.00824 11.63208,3.46455 11.88776,3.50917 16.25131,2.84347 7.72397,-1.17847 7.85621,-1.29055 3.12133,-2.64661 -7.59687,-2.17563 -26.38943,-5.77745 -35.50171,-6.80439 -8.81463,-0.99339 -25.75334,-2.1988 -35.83033,-2.54974 -14.28045,-0.49734 -90.68423,-0.33797 -104.44721,0.2177 z m 35.90921,2.45179 c 2.44076,0.12655 6.4347,0.12649 8.87547,6e-5 2.44068,-0.12656 0.44358,-0.23037 -4.43771,-0.23002 -4.88153,0 -6.87845,0.10355 -4.43776,0.22996 z m 63.12778,0.56711 c 0.21849,0.2185 0.78553,0.2418 1.2601,0.0519 0.52446,-0.20991 0.36857,-0.36576 -0.39717,-0.39719 -0.69308,-0.0283 -1.08137,0.12681 -0.86293,0.34529 z m -81.04296,2.23055 c -28.10509,0.70543 -46.25258,2.60043 -70.01716,7.31164 -34.6285,6.86479 -67.65938,20.16815 -101.24547,40.77731 -17.55379,10.77126 -21.75396,13.12303 -27.28363,15.2763 -9.57065,3.72667 -20.00467,5.19701 -44.7059,6.29965 -32.99282,1.4728 -44.41712,2.15077 -45.43838,2.69654 -0.7528,0.40196 -1.27858,2.26046 -1.80799,6.38876 -0.41069,3.20193 -0.74669,6.61522 -0.7466,7.58517 v 1.76338 l 6.08128,0.005 c 7.24463,0.007 23.29415,0.92486 39.61063,2.26531 21.05404,1.72955 45.39951,2.68107 120.33501,4.70321 l 16.45981,0.44415 2.77558,-8.80441 c 1.52649,-4.8424 2.7732,-9.43303 2.77025,-10.20144 -0.007,-1.92284 -1.9572,-2.21767 -14.71538,-2.22462 -10.51888,-0.005 -27.37548,-0.95641 -30.39502,-1.71428 -0.86518,-0.21712 -1.57292,-0.6996 -1.57298,-1.07216 6e-5,-1.17628 6.98777,-9.27633 13.01484,-15.0865 16.11342,-15.53327 37.19078,-29.66266 59.04807,-39.58328 7.7564,-3.52043 8.90396,-3.92922 20.30727,-7.23337 18.75532,-5.43452 53.46445,-8.58121 94.34234,-8.55296 47.61413,0.0329 87.8905,4.01538 106.65068,10.54535 22.58685,7.86205 58.94103,27.5456 83.88142,45.41686 10.19207,7.3032 15.86964,12.02585 24.92777,20.73452 l 8.03817,7.72801 5.38961,-5e-5 5.38961,7e-5 -1.59389,-1.70372 c -3.59974,-3.84792 -33.50202,-25.00679 -51.23048,-36.25084 -27.43755,-17.40199 -61.30651,-33.81157 -82.25118,-39.85096 -7.06915,-2.03837 -22.03091,-4.73851 -33.78661,-6.09749 -15.62107,-1.80577 -63.47241,-2.53875 -102.23169,-1.56602 z m 55.71789,3.06715 c 0.45199,0.18244 1.19162,0.18244 1.6436,0 0.45198,-0.18237 0.0821,-0.33156 -0.82179,-0.33161 -0.90397,6e-5 -1.2738,0.14924 -0.82181,0.33161 z m -43.39089,7e-5 c 0.452,0.18237 1.19157,0.1823 1.64354,0 0.45204,-0.18239 0.0821,-0.33162 -0.82176,-0.33162 -0.90399,0 -1.27375,0.14924 -0.82178,0.33162 z m -117.73976,2.81744 c -25.12275,6.33475 -51.75328,16.72808 -91.90445,35.86824 -18.30929,8.72817 -27.54023,13.54964 -28.7639,15.02387 -1.01254,1.22013 1.54771,1.70466 12.33313,2.33431 14.08657,0.82229 15.75534,0.26135 35.25352,-11.85176 30.65162,-19.04205 55.04244,-30.23579 83.82334,-38.46923 7.05109,-2.01709 12.93884,-3.77963 13.08392,-3.91664 0.14567,-0.13656 -0.74252,-0.70587 -1.97236,-1.26411 -3.26221,-1.48061 -9.55632,-0.82521 -21.8532,2.27532 z m 272.4021,-0.6619 c 10e-6,0.3402 0.29584,0.80152 0.65742,1.02493 0.36168,0.22327 0.65743,-0.0546 0.65743,-0.61866 -10e-6,-0.56373 -0.29593,-1.0249 -0.65747,-1.0249 -0.3616,0 -0.6574,0.2783 -0.65739,0.61861 z m -115.06828,0.20314 c -0.009,0.45199 3.44305,16.43461 7.6715,35.517 6.9674,31.44267 7.81639,34.72286 9.05637,34.99027 1.95109,0.4208 105.38731,3.72697 120.36458,3.84729 l 12.49133,0.1004 0.32873,-9.42261 0.32872,-9.42262 2.1109,-1.8859 c 1.16104,-1.0373 3.27143,-2.19841 4.68988,-2.58037 3.97512,-1.07058 4.39888,-2.06474 1.89553,-4.44873 -7.11388,-6.77517 -45.20095,-27.23328 -65.56473,-35.21737 -13.64114,-5.34838 -34.7312,-8.53437 -74.61922,-11.27247 -17.05598,-1.17099 -18.73375,-1.18924 -18.75359,-0.20481 z m -11.33937,1.15052 c 0.36223,3.98968 8.77527,65.64617 9.23644,67.69092 0.61416,2.72302 1.74724,3.15369 8.54205,3.24687 4.63469,0.0635 4.76844,0.0208 4.43065,-1.41369 -0.1916,-0.81359 -3.72525,-16.92964 -7.85255,-35.81348 -4.12734,-18.88385 -7.70113,-34.65285 -7.94177,-35.04226 -0.24228,-0.39203 -1.80424,-0.61958 -3.50078,-0.50991 -2.8236,0.18243 -3.0516,0.32649 -2.91404,1.84155 z m -29.59503,-1.29869 c -36.14577,2.15198 -54.78096,4.66293 -69.28096,9.33489 l -6.68534,2.15413 -5.18878,7.88925 c -7.97842,12.13062 -15.0304,24.03961 -20.42213,34.48763 -4.87755,9.45133 -4.89627,9.50775 -3.34232,9.9914 1.44029,0.44826 40.60821,2.46298 93.60416,4.8147 11.93251,0.52951 25.88959,1.1488 31.01574,1.37616 5.12613,0.2274 10.55255,0.20523 12.05867,-0.0492 2.63512,-0.44519 2.72553,-0.54064 2.39766,-2.53132 -0.18737,-1.13779 -2.16626,-16.26934 -4.3975,-33.62573 -2.23124,-17.35636 -4.3176,-32.22273 -4.63636,-33.03618 -0.54763,-1.39766 -0.94474,-1.47938 -7.19352,-1.47938 -3.63762,7e-5 -11.70579,0.30328 -17.92932,0.67369 z m 150.90756,4.34281 c -0.81358,0.218 -1.47925,0.66144 -1.47928,0.98533 0,0.32393 8.06184,4.54587 17.91522,9.38208 9.85336,4.83622 22.92743,11.80102 29.05354,15.47732 20.72128,12.43478 50.76537,32.88641 64.17192,43.68299 3.41664,2.75152 6.80383,5.00697 7.52702,5.01223 1.80715,0.0131 22.88436,-4.70539 23.53451,-5.26855 2.21978,-1.92272 -55.63105,-34.12307 -97.52831,-54.28523 -28.50163,-13.71591 -32.4448,-15.33356 -37.44207,-15.35996 -2.35031,-0.0125 -4.93904,0.15576 -5.75255,0.37379 z m -254.26424,19.45172 c -15.38598,9.06185 -31.79689,21.43164 -42.07608,31.71487 l -7.89076,7.89071 2.62969,0.47899 c 1.44636,0.26339 10.61761,0.67911 20.38065,0.92389 l 17.75077,0.44484 3.51008,-7.11828 c 4.99732,-10.13432 11.79805,-22.13083 18.80089,-33.16457 3.32746,-5.24312 6.26631,-9.89853 6.53054,-10.34546 0.60831,-1.02856 -13.52771,5.57503 -19.63733,9.17347 z m 308.00979,24.14347 c -2e-5,0.77571 1.28219,1.60551 1.75318,1.13453 0.47086,-0.47091 -0.35888,-1.75313 -1.13454,-1.75318 -0.34023,3e-5 -0.61862,0.2784 -0.61864,0.61865 z m 3.94463,2.58122 c 5e-5,0.72135 1.15175,1.97521 2.7941,3.04072 1.53679,0.99723 3.62662,2.58927 4.64401,3.53782 1.57089,1.46433 1.77935,1.52634 1.38135,0.41079 -0.6412,-1.79736 -2.73591,-4.08667 -5.79527,-6.33366 -3.03451,-2.22866 -3.02419,-2.22647 -3.02419,-0.65567 z m -14.13492,4.68939 c -0.65449,0.7232 -1.04202,1.31488 -0.86126,1.31492 0.18082,-5e-5 0.8642,-0.59172 1.51869,-1.31491 0.65446,-0.72316 1.042,-1.31485 0.86125,-1.31487 -0.18081,4e-5 -0.86422,0.59169 -1.51868,1.31486 z m 3.15948,0.98511 c -2.50058,1.7515 -4.04455,14.93995 -1.95235,16.67632 0.48313,0.40096 3.9021,1.05796 7.5977,1.46001 l 6.7193,0.73099 4.05517,-3.84488 c 2.23041,-2.11476 3.96092,-4.27949 3.84568,-4.81073 -0.42643,-1.9643 -3.29096,-6.96809 -4.78759,-8.36321 -2.3008,-2.14458 -4.3362,-2.74579 -9.45128,-2.79193 -3.09857,-0.0279 -5.08336,0.28274 -6.02663,0.94344 z m -477.00817,-0.54969 c 0.45205,0.18231 1.19158,0.18228 1.64362,2e-5 0.45205,-0.18236 0.0817,-0.33167 -0.82172,-0.33159 -0.9041,-5e-5 -1.27386,0.1492 -0.8219,0.33157 z m 6.58192,1.55507 c -21.08559,1.51273 -35.04369,2.94681 -37.37294,3.83978 l -1.58778,0.60869 1.79409,0.70362 c 2.46506,0.96673 4.83291,0.99752 13.98444,0.18182 4.33913,-0.38675 15.28549,-1.01662 24.32524,-1.39972 35.01317,-1.48385 44.7893,-2.36639 39.76576,-3.59012 -8.24958,-2.00944 -16.70453,-2.08057 -40.90881,-0.34407 z m 54.39547,0.63929 c -0.51736,0.83696 1.00587,0.83706 2.30106,-3e-5 0.80168,-0.51824 0.71661,-0.63941 -0.45428,-0.64733 -0.79222,-0.005 -1.62321,0.28577 -1.84678,0.64736 z m 438.84015,1.72407 c 0,0.8736 0.1787,0.91843 0.98611,0.24825 0.54238,-0.45016 0.98615,-0.93009 0.98615,-1.06669 2e-4,-0.13658 -0.44358,-0.24853 -0.98615,-0.2482 -0.54239,-4e-5 -0.98616,0.47997 -0.98611,1.06664 z m -458.71393,1.96033 c 0.21847,0.21847 0.78554,0.24178 1.26013,0.0518 0.52441,-0.20989 0.36717,-0.36724 -0.39722,-0.39718 -0.69296,-0.0286 -1.08137,0.12681 -0.86291,0.34528 z m -48.34787,2.00629 c 0.44508,0.1802 1.33257,0.19111 1.97228,0.0244 0.64018,-0.16475 0.27561,-0.31381 -0.80928,-0.3274 -1.08471,-0.0135 -1.6082,0.12301 -1.163,0.30279 z m 141.70413,3.2532 c 0.2184,0.21843 0.7855,0.24178 1.26006,0.0517 0.52444,-0.20981 0.36716,-0.36717 -0.39717,-0.39711 -0.69308,-0.0286 -1.08143,0.12682 -0.86295,0.34523 z m -168.725245,1.08202 c -0.21809,0.81366 -0.40047,4.03093 -0.40548,7.14962 l -0.009,5.6704 2.054475,0.41091 c 1.12989,0.22601 2.73362,0.41092 3.56369,0.41093 1.77359,0 2.10578,-1.17857 2.40198,-8.51973 l 0.19777,-4.9038 -2.62971,-0.79824 c -3.845145,-1.16718 -4.732265,-1.06771 -5.173825,0.57991 z m 538.821545,4.11839 c 0.98944,3.00929 2.97379,4.25026 6.76648,4.23173 l 2.62983,-0.0131 -4.93086,-4.5263 c -5.28061,-4.84747 -6.14106,-4.78823 -4.46545,0.3075 z m -321.1433,-4.5089 c 0.44506,0.1801 1.33259,0.19102 1.97229,0.0244 0.63966,-0.16663 0.27521,-0.31428 -0.80929,-0.32741 -1.0848,-0.0135 -1.60826,0.12291 -1.16303,0.30303 z m 20.73644,1.3634 c 1.36403,0.14234 3.43496,0.13993 4.60209,-0.005 1.16699,-0.14525 0.0512,-0.26171 -2.48012,-0.25881 -2.5311,0.002 -3.48598,0.12186 -2.12198,0.26414 z m 49.6219,1.95648 c 0.81359,0.15668 2.14491,0.1567 2.95849,1e-5 0.81357,-0.15667 0.14793,-0.2849 -1.47925,-0.28491 -1.62715,-1e-5 -2.29282,0.12822 -1.47924,0.2849 z m -8.54667,-0.0286 c 0.45198,0.18237 1.1916,0.18237 1.64358,0 0.452,-0.18236 0.082,-0.33164 -0.82179,-0.33161 -0.90399,1e-5 -1.27379,0.14925 -0.82179,0.33161 z m -75.63801,3.18056 c -2.32947,6.26077 -4.56071,14.89976 -3.98966,15.44669 0.31387,0.30059 9.00235,0.85498 19.30769,1.23196 30.4178,1.11273 141.28954,3.652 141.69629,3.24528 0.47444,-0.47445 -1.58497,-16.48867 -2.19469,-17.06627 -0.24935,-0.23623 -15.68955,-1.05891 -34.31147,-1.82818 -27.62169,-1.14106 -67.98332,-2.97901 -92.04136,-4.19122 -2.35034,-0.11842 -9.44168,-0.19513 -15.75852,-0.17044 l -11.48531,0.045 -1.22298,3.28724 z m 105.22274,-2.52308 c 0.45196,0.18235 1.19159,0.18236 1.64359,-2e-5 0.45196,-0.18237 0.082,-0.33161 -0.82182,-0.3316 -0.90398,0 -1.27378,0.14923 -0.82177,0.33162 z m -7.88928,-2e-5 c 0.452,0.18237 1.19159,0.18239 1.64359,2e-5 0.452,-0.18238 0.082,-0.33167 -0.82179,-0.33162 -0.90398,0 -1.2738,0.14923 -0.8218,0.3316 z m 229.96354,3.48412 -2.54333,2.60462 1.7953,0.68255 c 3.38253,1.28602 7.38671,0.51591 4.99687,-0.96101 -0.36159,-0.22352 -0.65744,-1.42437 -0.65725,-2.66864 0,-1.24421 -0.23581,-2.26223 -0.52404,-2.2622 -0.28822,-1e-5 -1.66852,1.17206 -3.06734,2.60461 z m -195.11931,-2.16923 c 0.45199,0.18236 1.1916,0.18237 1.64358,0 0.45201,-0.18237 0.0822,-0.33163 -0.82179,-0.33162 -0.90397,1e-5 -1.2738,0.14923 -0.82179,0.33162 z m -10.51902,0.0286 c 0.8136,0.15668 2.1449,0.15673 2.95848,2e-5 0.81358,-0.15668 0.14793,-0.28492 -1.47924,-0.28492 -1.62716,-1e-5 -2.29281,0.12819 -1.47924,0.2849 z m 294.61111,0.89676 c -1.03172,0.55216 -1.15092,0.9 -0.55435,1.61875 2.1702,2.61499 13.04877,4.77903 31.21095,6.20881 4.70063,0.37012 10.17387,0.8068 12.16255,0.97059 7.70577,0.63435 0.60019,-0.97636 -14.46358,-3.27862 -16.08949,-2.45902 -22.15948,-3.73959 -24.96562,-5.26652 -2.04667,-1.11331 -1.81447,-1.09613 -3.38995,-0.25301 z m -250.01453,-0.13507 c -0.19318,0.31252 1.78635,0.75867 4.39892,0.9914 7.93887,0.70728 62.30502,2.29324 89.88833,2.62224 32.93027,0.39279 21.30496,-0.29742 -36.48781,-2.16637 -23.50343,-0.7601 -44.6565,-1.46751 -47.00683,-1.57205 -2.35034,-0.10453 -5.66118,-0.2471 -7.35739,-0.31679 -1.69623,-0.0697 -3.24209,0.12904 -3.43522,0.44157 z m -21.24382,-0.17104 c 0.21846,0.21848 0.78551,0.2418 1.2601,0.0518 0.52444,-0.20987 0.36856,-0.36577 -0.3972,-0.39719 -0.69307,-0.0286 -1.08136,0.12685 -0.8629,0.3453 z m 203.12106,1.69838 c 0.40636,1.21903 1.82164,1.42122 1.82164,0.2602 5e-5,-0.57251 -0.46844,-1.04092 -1.041,-1.0409 -0.57243,-6e-5 -0.92384,0.35132 -0.78064,0.7807 z m -43.8394,1.95456 c -0.92099,0.41962 -1.6744,0.969 -1.67452,1.22034 0,0.75038 10.22851,1.37074 11.91757,0.7228 l 1.55992,-0.59839 -1.6436,-0.6458 c -3.98806,-1.567 -7.69456,-1.82198 -10.15937,-0.69895 z m -144.74201,1.70241 c 0.19719,0.9944 0.70432,4.28855 1.12697,7.32041 0.48872,3.50572 1.18057,5.92457 1.9005,6.64451 1.52301,1.52302 4.98472,1.79466 37.80837,2.96695 39.42893,1.40819 71.13687,2.73717 111.43577,4.67057 19.34518,0.92812 38.42735,1.73554 42.40483,1.79422 l 7.23184,0.10682 -0.16621,-3.19006 c -0.15496,-2.97443 -2.32384,-12.66787 -2.98168,-13.32569 -0.41392,-0.41403 -17.81738,-1.96431 -35.31232,-3.14569 -22.26288,-1.50334 -39.85415,-2.21926 -90.39778,-3.67896 -25.31136,-0.73098 -48.6833,-1.41268 -51.93761,-1.51483 -3.25432,-0.10214 -9.41665,-0.2466 -13.69409,-0.32095 l -7.77713,-0.13519 z m 237.9879,0.49647 c -4.18966,0.90584 -7.90853,1.82678 -8.26414,2.04653 -2.28052,1.40943 5.4499,2.97731 23.88723,4.84473 36.47291,3.69425 91.37972,11.72248 121.59781,17.77959 16.956,3.39874 27.06116,6.36879 35.17598,10.33862 6.53072,3.19498 6.77885,3.25779 14.70051,3.7211 4.43167,0.25922 8.76457,0.7401 9.62871,1.06861 4.10701,1.56146 -0.17226,-2.55923 -5.33208,-5.13448 -7.36969,-3.67839 -28.69224,-9.12816 -61.03173,-15.59903 -33.72485,-6.74813 -49.10062,-9.07561 -84.91958,-12.8547 -19.38719,-2.04548 -19.60415,-2.09025 -31.22838,-6.45332 -4.62291,-1.73515 -5.10593,-1.72697 -14.21433,0.24235 z m -46.92736,0.65405 c -7e-5,0.54241 0.48,0.98615 1.06682,0.98595 0.87354,4e-5 0.91857,-0.17845 0.24819,-0.9861 -0.45015,-0.54232 -0.93028,-0.98603 -1.06689,-0.98595 -0.13642,-5e-5 -0.24812,0.44371 -0.24812,0.9861 z m 117.02401,3.61594 c 0,0.36156 0.29591,0.65743 0.65744,0.65743 0.36159,1e-5 0.65744,-0.29584 0.65744,-0.65742 0,-0.3616 -0.29585,-0.65744 -0.65738,-0.65745 -0.36165,0 -0.6575,0.29582 -0.6575,0.65744 z m -99.43957,0.58337 c -2.08027,0.25988 -4.08861,0.77885 -4.46308,1.15335 -0.8295,0.82946 2.29544,16.04167 3.4407,16.74946 0.89234,0.55158 7.41182,1.06757 19.92577,1.5772 34.29204,1.39668 70.12425,4.36523 126.88558,10.51231 33.05936,3.58013 46.43703,4.64592 49.9669,3.98059 l 2.62817,-0.49535 -2.36401,-1.21562 c -12.99218,-6.68099 -87.92712,-19.49835 -153.449,-26.24692 -15.0884,-1.55409 -20.9993,-2.68747 -25.63995,-4.91607 -3.53111,-1.69571 -9.20507,-2.06399 -16.93102,-1.09892 z m 105.53461,0.47125 c 0.21847,0.21842 0.78552,0.24178 1.26012,0.0518 0.52443,-0.20985 0.36849,-0.36575 -0.39729,-0.39712 -0.69301,-0.0286 -1.08129,0.12679 -0.86283,0.34526 z m -678.631295,2.18933 c -0.9988,1.86626 -0.88971,2.01652 1.45605,2.00545 2.706065,-0.0127 4.086515,-0.87343 3.567955,-2.2246 -0.58822,-1.53307 -4.169825,-1.37679 -5.024005,0.21915 z m 13.487125,0.69497 c -4.59016,0.01 -1.64019,1.15286 5.7473,2.2263 10.6292,1.5445 13.65022,3.48338 12.14705,7.79585 -1.19855,3.43802 -6.92359,6.9467 -21.24737,13.02074 -3.59783,1.52567 -6.91105,3.0676 -7.3631,3.42643 -0.574685,0.45621 -0.821725,3.00039 -0.821895,8.46108 l 9e-5,7.80883 54.643245,-3e-5 54.64325,-1e-5 4.36185,-2.883 c 9.92478,-6.56005 23.9578,-12.16396 33.82976,-13.50945 11.5013,-1.56768 25.9892,-0.42247 36.29665,2.86894 2.88128,0.92004 5.41622,1.67659 5.63332,1.68122 0.21702,0.004 0.59097,-3.91159 0.83093,-8.70266 0.23996,-4.7911 0.6132,-10.21743 0.82949,-12.05857 l 0.39323,-3.34737 -17.98884,-0.45259 c -58.80561,-1.47957 -102.69127,-3.25593 -124.49374,-5.03908 -17.33571,-1.41783 -26.53511,-1.86209 -31.55708,-1.52379 -1.80802,0.12173 -4.45573,0.22397 -5.88414,0.22716 z m 86.9009,2.4092 c 0.4451,0.18018 1.33259,0.19106 1.9723,0.0245 0.63961,-0.16663 0.2757,-0.3138 -0.8093,-0.32741 -1.0848,-0.0135 -1.60818,0.12296 -1.163,0.30304 z m 33.88428,0.62345 c 0.21846,0.21846 0.7855,0.24179 1.26004,0.0517 0.52443,-0.20988 0.36718,-0.36717 -0.39722,-0.3972 -0.69301,-0.0286 -1.08136,0.12685 -0.86282,0.34536 z m 32.52952,1.3531 c 0.45198,0.18237 1.19161,0.18237 1.64352,-4e-5 0.45206,-0.18232 0.082,-0.33163 -0.82174,-0.33156 -0.90402,-4e-5 -1.27377,0.14921 -0.82178,0.3316 z m 559.82247,0.61918 c 0.2184,0.21855 0.78544,0.24181 1.26004,0.0519 0.52451,-0.20991 0.36864,-0.36581 -0.39716,-0.39726 -0.69301,-0.0286 -1.08135,0.12682 -0.86288,0.34531 z m -520.69121,5e-5 c 0.21843,0.21845 0.78551,0.24177 1.26005,0.0517 0.52445,-0.20987 0.36718,-0.36717 -0.39721,-0.39719 -0.69303,-0.0286 -1.08135,0.12685 -0.86283,0.34534 z m -199.44977,2.06818 c -1.1735,3.06248 -3.86528,13.54375 -3.5573,13.8516 0.74917,0.74916 18.04852,-7.30297 21.88133,-10.18492 1.18202,-0.88858 1.98315,-1.88424 1.78036,-2.21247 -0.53776,-0.86992 -5.22607,-2.02646 -10.5036,-2.59122 -8.50106,-0.9096 -8.8315,-0.87042 -9.60079,1.13701 z m -8.462105,-0.50978 c -1.36547,1.36545 -1.5446,1.924 -2.62903,8.19103 -2.20514,12.74584 1.28787,12.61426 4.34084,-0.16339 0.83655,-3.50208 1.52971,-7.03296 1.53991,-7.84659 0.0242,-1.84694 -1.50095,-1.93179 -3.25172,-0.18105 z M 343.74191,219.3709 c 0.45202,0.18237 1.19161,0.1824 1.64357,-3e-5 0.452,-0.18236 0.082,-0.33164 -0.82177,-0.33159 -0.90401,0 -1.27384,0.14921 -0.8218,0.33162 z m 490.13405,0.61921 c 0.21848,0.21848 0.78552,0.2418 1.26005,0.0518 0.52451,-0.2099 0.36862,-0.36579 -0.39716,-0.39716 -0.69308,-0.0286 -1.08136,0.12681 -0.86289,0.34526 z m -452.01512,0.0341 c 0.44509,0.18012 1.33262,0.19105 1.97231,0.0244 0.63967,-0.16663 0.27547,-0.31404 -0.80928,-0.32743 -1.08479,-0.0135 -1.60814,0.12299 -1.16303,0.30306 z m -85.84628,0.43293 c -1.23113,1.4833 -2.86885,13.59492 -2.57131,19.01528 0.32905,5.99268 0.64554,6.45163 7.72957,11.20824 7.32825,4.92067 14.72318,11.34184 18.7987,16.3233 9.62059,11.7593 16.33743,27.81658 17.29394,41.34319 l 0.39514,5.58821 20.38059,0.40621 c 11.20934,0.2234 39.68464,0.62991 63.27845,0.90337 l 42.89783,0.49714 2e-5,-8.98687 c 0,-16.67775 -3.51876,-81.7945 -4.46533,-82.63349 -0.256,-0.22693 -30.34603,-1.07554 -66.86672,-1.8858 -36.52067,-0.81022 -71.87445,-1.6904 -78.56388,-1.95593 -6.68941,-0.26548 -13.38377,-0.52874 -14.87629,-0.58492 -1.55596,-0.0586 -3.01949,0.26658 -3.43077,0.76204 z m 51.65606,7.49951 c 3.27267,0.40734 4.98546,3.0233 4.60424,7.03216 -0.19188,2.01713 -0.73182,3.54348 -1.4357,4.05813 -1.60232,1.17165 -9.61289,1.79125 -18.88491,1.46066 l -7.94876,-0.2834 -1.88352,-2.10804 c -3.64766,-4.08243 -1.98735,-8.97097 3.39988,-10.01044 2.89798,-0.5591 18.03569,-0.66103 22.14877,-0.14907 z m -21.74119,4.77269 c -0.30534,0.2914 -0.44974,1.07936 -0.32142,1.75055 0.20083,1.05091 1.14507,1.28838 6.80036,1.71027 6.81872,0.50874 13.86635,0.15548 15.36392,-0.77003 1.33401,-0.82448 0.58982,-2.89227 -1.23976,-3.44462 -2.0492,-0.61867 -19.84847,0.0327 -20.6031,0.75383 z m 513.20605,-11.4243 c 0.21847,0.21846 0.78551,0.24179 1.26011,0.0518 0.52438,-0.20983 0.36849,-0.36573 -0.3973,-0.39713 -0.69294,-0.0286 -1.08135,0.12685 -0.86289,0.34524 z m -408.94809,0.0546 c 0.62863,0.16435 1.81197,0.17052 2.62974,0.0133 0.8178,-0.15727 0.30352,-0.29189 -1.14283,-0.29922 -1.44636,-0.007 -2.11548,0.12138 -1.4869,0.28591 z m 67.38259,1.95183 c 0.44509,0.18012 1.33265,0.19104 1.9723,0.0244 0.63967,-0.16663 0.27547,-0.31404 -0.80928,-0.32742 -1.08476,-0.0135 -1.60813,0.12299 -1.16302,0.30306 z m 356.68651,0.62341 c 0.21854,0.21847 0.7855,0.24181 1.26017,0.0518 0.52444,-0.20993 0.36856,-0.36576 -0.39721,-0.39722 -0.69308,-0.0285 -1.0813,0.1268 -0.86296,0.34534 z m -389.57453,0.47231 c -0.18356,0.47823 -0.0771,4.39821 0.23642,8.71106 1.23965,17.0512 2.66212,46.87064 3.04407,63.81266 l 0.40215,17.83971 2.78729,0.38205 c 8.70515,1.19316 192.71889,2.17065 193.85809,1.02975 2.64836,-2.65215 3.07011,-58.0191 0.60414,-79.31542 -0.27212,-2.35103 -0.73292,-3.536 -1.45966,-3.75421 -3.57817,-1.07435 -95.77197,-5.5216 -171.33841,-8.26506 -10.84774,-0.39383 -20.31484,-0.80941 -21.03802,-0.92353 -3.51217,-0.55416 -6.78354,-0.33148 -7.09607,0.48299 z m 38.74861,3.54558 c 2.78048,0.34962 4.26584,2.1644 4.66418,5.69854 0.28133,2.49588 0.0871,3.1789 -1.29776,4.56377 -1.33895,1.33896 -2.55162,1.71513 -6.8186,2.11518 -6.134,0.5751 -21.28053,-0.0769 -22.15741,-0.95379 -1.48646,-1.48646 -1.61565,-8.98007 -0.17956,-10.41615 1.12009,-1.1201 19.25852,-1.82878 25.78915,-1.00755 z m -22.09621,5.17204 c -0.84493,0.81788 -0.83879,1.05575 0.0501,1.94465 1.52556,1.52559 20.45884,1.74506 21.95052,0.25446 1.29089,-1.28994 0.6769,-3.06082 -1.20604,-3.47835 -0.78299,-0.17365 -5.56548,-0.1665 -10.62778,0.0159 -6.68852,0.24092 -9.46725,0.58623 -10.1668,1.26341 z m 378.74848,-7.96568 c 0.16869,0.16865 5.913,1.82306 12.76529,3.67653 16.47328,4.45624 21.38383,6.40987 26.47325,10.53368 4.05468,3.28539 6.18517,3.97459 3.67745,1.18976 -1.68771,-1.8741 -10.2563,-6.85393 -14.73366,-8.5626 -6.58081,-2.51155 -29.39037,-8.04535 -28.1824,-6.83728 z m -305.96066,0.12879 c 0.45199,0.18236 1.19159,0.18238 1.64358,-2e-5 0.45201,-0.18237 0.082,-0.33162 -0.8218,-0.33158 -0.90397,0 -1.27379,0.14921 -0.82178,0.3316 z m 40.44613,1.93414 c 0.21847,0.21844 0.78554,0.24178 1.26011,0.0518 0.52443,-0.20988 0.36854,-0.36577 -0.39721,-0.39719 -0.69306,-0.0286 -1.08135,0.12682 -0.86288,0.3453 z m 40.76129,1.97228 c 0.21839,0.21846 0.78542,0.24182 1.26004,0.0518 0.52445,-0.20986 0.36856,-0.36578 -0.39729,-0.3972 -0.69301,-0.0286 -1.08135,0.12685 -0.86283,0.34531 z m 34.84411,0.6575 c 0.21853,0.21842 0.78557,0.24174 1.26017,0.0518 0.52438,-0.20984 0.36856,-0.36579 -0.39728,-0.39716 -0.69301,-0.0286 -1.08129,0.12679 -0.86289,0.34524 z m -207.92853,0.87881 c 0,0.34027 0.29583,0.80152 0.65742,1.02497 0.3616,0.2235 0.65744,-0.0549 0.65741,-0.61864 0,-0.56372 -0.29586,-1.02496 -0.65744,-1.02497 -0.36158,0 -0.65742,0.2784 -0.65742,0.61864 z m 224.36449,0.43604 c 0.21853,0.21842 0.78556,0.24177 1.2601,0.0518 0.52444,-0.20984 0.36864,-0.36577 -0.39715,-0.39721 -0.69307,-0.0286 -1.08136,0.12685 -0.86295,0.34534 z m -17.51174,1.25299 c -0.20946,0.54598 0.0566,4.46598 0.59144,8.71102 1.95924,15.55236 2.26507,25.40288 1.50521,48.47949 -0.40486,12.2941 -0.76625,23.53631 -0.80314,24.98265 l -0.0671,2.62977 3.0713,0.19826 3.07134,0.1983 0.38849,-3.81418 c 1.97947,-19.43427 6.12074,-31.79963 14.737,-44.00369 12.16904,-17.23619 25.60952,-25.60121 49.02392,-30.51246 4.77681,-1.00189 6.75615,-1.65805 5.91694,-1.9614 -1.48647,-0.53731 -13.57085,-1.4608 -43.33707,-3.31169 -18.35082,-1.14113 -31.5418,-2.13159 -33.29459,-2.5 -0.23254,-0.0489 -0.59418,0.35786 -0.80379,0.90393 z m 21.60712,5.47483 2.62967,0.43552 0.19309,4.00464 c 0.27245,5.65495 -0.12899,5.88678 -9.92922,5.73418 -9.18895,-0.14322 -9.87735,-0.50121 -9.87728,-5.13662 -7e-5,-4.53763 0.98136,-5.17113 8.26551,-5.33556 3.34873,-0.0757 7.27199,0.0585 8.71823,0.29803 z m -10.76557,3.80487 c -2.4671,0.4934 -2.70435,2.03072 -0.40254,2.60844 1.54781,0.38843 6.44348,-0.0453 9.03136,-0.80004 4.16119,-1.2137 -3.53623,-2.82692 -8.62882,-1.8084 z m 1.56142,4.19115 c -0.22352,0.36159 0.0723,0.65746 0.65739,0.65748 0.58505,-2e-5 0.88096,-0.29588 0.65749,-0.65749 -0.22379,-0.36139 -0.51937,-0.6574 -0.65749,-0.65742 -0.13807,5e-5 -0.43398,0.29589 -0.65739,0.65743 z m -14.79235,-10.22908 c -1.9e-4,0.15952 0.29572,0.47282 0.65724,0.6964 0.36159,0.22348 0.6575,0.0929 0.65743,-0.28994 7e-5,-0.38297 -0.29578,-0.69625 -0.65723,-0.6964 -0.36159,-1e-5 -0.65744,0.13051 -0.65744,0.28995 z m 115.10645,4.58382 c 0.15029,0.1498 3.52374,1.4917 7.49566,2.98289 11.02865,4.14053 20.15909,9.71065 28.46029,17.36242 l 2.93862,2.70876 13.56164,0.007 c 7.45884,0.003 14.37562,-0.22096 15.37051,-0.49921 l 1.80883,-0.50582 -1.75735,-2.65551 c -1.31086,-1.98079 -1.76923,-3.52258 -1.80393,-6.06857 -0.0256,-1.87717 0.0992,-3.83264 0.27716,-4.34545 0.49071,-1.41332 -1.7405,-1.78979 -33.28452,-5.61212 -27.7122,-3.35821 -33.66321,-3.96549 -33.06691,-3.3741 z m -491.16125,0.34696 c 6e-5,0.34026 0.29584,0.80148 0.65742,1.02496 0.3616,0.22351 0.65744,-0.0549 0.65758,-0.61848 0,-0.56373 -0.29592,-1.02498 -0.65743,-1.02493 -0.36153,0 -0.65744,0.27839 -0.65757,0.61854 z m -198.542635,1.35166 c -1.24288,0.66525 -2.12127,3.95932 -2.93687,11.01421 l -0.39917,3.45151 3.38447,3e-5 h 3.38442 l -0.25526,-6.73875 c -0.23089,-6.10038 -0.67171,-8.38232 -1.61959,-8.38235 -0.18331,-2e-5 -0.88425,0.29494 -1.55782,0.65534 z m 655.043865,0.70272 c -21.21336,2.36538 -38.54541,11.97983 -50.70471,28.12695 -6.64453,8.82366 -11.69998,20.44683 -13.99226,32.16983 -0.78486,4.01398 -0.44239,6.78718 0.37243,3.01597 1.09326,-5.05964 4.5201,-14.70297 7.15871,-20.14529 4.48519,-9.25058 7.86837,-13.91128 16.14544,-22.24195 6.76498,-6.8088 8.25289,-7.96021 13.82639,-10.7 11.05101,-5.43233 29.75039,-8.9856 42.07619,-7.99535 15.39726,1.23701 31.73736,6.52372 42.7102,13.81834 14.25306,9.47544 25.20566,28.54896 29.07034,50.62491 1.99534,11.39826 2.49216,13.25198 3.24874,12.12451 0.74855,-1.11538 0.23076,-8.70573 -1.09845,-16.10256 -4.15114,-23.10019 -20.59282,-45.26408 -40.65487,-54.80405 -6.8246,-3.24519 -16.34411,-6.41988 -22.70345,-7.57144 -6.14533,-1.11282 -17.10824,-1.25058 -25.4547,-0.31987 z m -499.97033,0.921 c -30.74575,5.38037 -56.58661,30.46993 -65.00167,63.11159 -2.38807,9.2634 -3.56675,19.29401 -2.5671,21.84527 0.66818,1.7052 0.76215,1.74603 1.2258,0.53205 0.27607,-0.72323 0.71513,-3.68171 0.97561,-6.57442 1.41933,-15.76401 6.67803,-30.32562 15.97512,-44.2357 9.25163,-13.84197 19.51186,-21.65501 35.44113,-26.98799 14.66233,-4.90867 30.21146,-5.73157 44.27144,-2.34289 13.07526,3.1514 28.63974,14.17456 38.73954,27.43632 7.21362,9.4721 10.83767,17.26312 15.64747,33.63894 l 1.15863,3.94462 0.21962,-2.62974 c 0.46128,-5.52238 -2.79702,-17.2751 -7.29049,-26.29752 -4.29067,-8.61513 -8.19935,-14.13867 -14.20224,-20.06986 -17.18479,-16.97959 -42.26613,-25.27784 -64.59286,-21.37067 z m 633.02698,1.4721 c 0.81359,0.15663 2.14495,0.15661 2.95854,-7e-5 0.81358,-0.15667 0.14785,-0.28487 -1.47931,-0.28491 -1.62709,-3e-5 -2.29274,0.1282 -1.47923,0.28498 z m -10.51908,-0.0286 c 0.45199,0.18237 1.19166,0.18237 1.64365,-1e-5 0.452,-0.18239 0.082,-0.33169 -0.82178,-0.33158 -0.90399,-5e-5 -1.27373,0.14917 -0.82187,0.33159 z m 35.66674,4.00223 c 0,1.70549 5.71394,17.9825 6.60911,18.82992 0.57854,0.54777 0.67762,0.40185 0.39795,-0.58598 -0.20466,-0.72318 -0.84054,-3.38588 -1.41376,-5.91691 -1.93411,-8.54427 -3.63103,-13.4775 -4.6356,-13.47752 -0.52701,-5e-5 -0.95803,0.51774 -0.9577,1.15053 z m -49.02378,0.61643 c -5.25564,2.79937 -5.41178,4.91632 -0.68413,9.27424 3.3856,3.12062 6.11647,4.00008 14.86304,4.78637 6.98988,0.62837 29.82119,0.81021 30.38935,0.2421 0.84442,-0.84446 -5.36588,-15.00158 -6.86839,-15.65716 -0.46165,-0.20131 -8.53138,-0.29956 -17.93275,-0.21795 -16.11486,0.13982 -17.24644,0.22982 -19.76712,1.5724 z m -114.83404,0.85948 c -3.80709,0.73465 -8.57857,1.90571 -10.60323,2.60231 -15.18157,5.2232 -28.4002,17.78804 -36.89011,35.06551 -5.82403,11.85209 -8.22796,22.59567 -8.23203,36.79039 v 6.41003 l 4.20247,-10e-6 4.20248,-2e-5 0.30025,-12.32693 c 0.26765,-10.98605 0.49309,-12.96498 2.0729,-18.19205 6.71823,-22.22852 23.32039,-38.35126 45.51721,-44.20268 5.5403,-1.46048 7.88513,-1.71294 16.02296,-1.72515 8.14638,-0.0122 10.4423,0.2279 15.78601,1.6508 11.85067,3.15553 21.38502,8.58343 29.62712,16.86671 8.48603,8.52782 14.32026,18.73257 17.19195,30.06906 1.2523,4.94359 1.47384,7.53087 1.44894,16.91804 l -0.0296,11.08199 3.80432,-0.27523 c 2.0923,-0.1513 4.03234,-0.50679 4.3111,-0.78995 0.83626,-0.84925 0.35238,-14.05841 -0.77303,-21.09876 -1.37588,-8.60858 -3.03979,-13.58553 -7.43844,-22.24961 -8.53224,-16.806 -17.43153,-25.29162 -33.02898,-31.49362 -17.40884,-6.92244 -30.67029,-8.34682 -47.49045,-5.10086 z m -277.71938,0.16767 c 0.18237,0.45201 0.33163,0.0821 0.3316,-0.82178 0,-0.90399 -0.14923,-1.27378 -0.33161,-0.8218 -0.18237,0.45199 -0.18239,1.19159 10e-6,1.64358 z m -221.53889,2.38197 c -6.70902,1.68386 -15.94931,5.64248 -22.74986,9.7461 -14.74795,8.89945 -28.36328,31.06619 -32.73728,53.29871 -1.05846,5.38052 -0.72237,6.06966 2.96034,6.06965 1.63843,0 2.98048,-0.22186 2.98205,-0.4931 0.0167,-2.72959 2.86266,-18.61575 3.97483,-22.1885 2.7814,-8.93478 7.69372,-17.06752 14.96452,-24.77489 7.81892,-8.28837 17.98364,-14.22689 29.12065,-17.01279 8.42283,-2.10699 23.29593,-2.46588 31.52502,-0.76083 11.66761,2.4176 23.74115,9.37157 32.58299,18.76677 11.45212,12.16881 16.19412,24.81943 17.10832,45.64156 0.43295,9.86031 0.46486,10.02592 1.93477,10.02592 2.50826,0 3.41526,-1.61684 3.91826,-6.98498 0.62361,-6.65394 0.0119,-12.6309 -2.00434,-19.58879 -7.22097,-24.91794 -29.62233,-47.47733 -51.97932,-52.34598 -7.85546,-1.71065 -23.5821,-1.41152 -31.60095,0.60116 z m 500.27139,7.90513 c -10.32395,2.98346 -18.13503,7.6738 -26.18399,15.72272 -7.65574,7.65573 -12.35773,15.31432 -15.81742,25.76347 -1.70982,5.16424 -1.85281,6.38624 -1.88456,16.10723 -0.0401,12.28586 0.63062,15.36457 5.58611,25.64008 7.35436,15.24998 21.64524,27.5638 37.69988,32.48437 19.80566,6.07022 41.97454,0.27483 57.61691,-15.06225 12.63609,-12.38942 18.6124,-26.1109 18.6124,-42.7335 0,-16.57303 -5.73148,-29.75132 -18.40866,-42.32703 -9.41998,-9.34461 -17.58746,-13.7892 -31.45244,-17.11623 -0.72324,-0.1735 -5.75265,-0.20982 -11.17645,-0.0807 -7.49025,0.17838 -10.999,0.56357 -14.59178,1.60181 z m 22.48098,13.17433 c 9.90878,1.61994 17.64906,5.55302 24.62092,12.51058 5.71841,5.70624 9.19474,11.29224 11.67557,18.75971 1.50957,4.54397 1.75044,6.37766 1.77043,13.47752 0.021,7.54826 -0.14313,8.68741 -2.01702,13.97792 -2.80668,7.9237 -5.6105,12.40772 -11.45422,18.3178 -4.10137,4.14795 -6.08984,5.57258 -11.17638,8.00701 -3.40304,1.62878 -7.81465,3.35437 -9.8034,3.83467 -5.16431,1.24717 -16.48092,1.09907 -21.69546,-0.28392 -15.82486,-4.19721 -28.36064,-16.91233 -32.53991,-33.00575 -1.47575,-5.6829 -1.34479,-15.8778 0.28552,-22.22174 4.05213,-15.76756 16.52478,-28.30436 32.16432,-32.32961 5.01395,-1.29046 13.63343,-1.78584 18.16963,-1.04419 z m -8.05363,3.7824 c 0.63278,0.16545 1.66826,0.16536 2.30104,0 0.63277,-0.16549 0.11505,-0.30065 -1.15052,-0.30065 -1.26557,0 -1.78324,0.13523 -1.15052,0.30063 z m -7.69754,5.81297 c -6.14253,1.59993 -11.41859,4.78626 -16.83661,10.16798 -6.3882,6.34538 -8.87745,11.19817 -9.92541,19.34912 -1.88436,14.657 2.75881,26.25201 13.84393,34.57115 12.70686,9.53632 28.9561,10.01031 42.10723,1.22835 15.60205,-10.41869 20.57972,-30.73129 11.65308,-47.55398 -4.31752,-8.13665 -13.83229,-15.61633 -22.5494,-17.72633 -5.17641,-1.25292 -13.55809,-1.26954 -18.29282,-0.0364 z m 13.39438,27.09982 c 7.8909,4.0398 4.79792,17.25072 -4.03983,17.25572 -0.98715,5.7e-4 -2.99548,-0.4794 -4.46302,-1.06664 -3.2363,-1.29488 -4.74183,-3.87829 -4.74164,-8.13659 0,-4.25818 1.50553,-6.84159 4.74184,-8.13646 3.42585,-1.37076 5.70551,-1.34831 8.50284,0.084 z m -9.4771,2.79309 c -0.65449,0.72322 -1.04197,1.3149 -0.86125,1.31489 0.18087,0 0.86427,-0.59172 1.51868,-1.31488 0.65449,-0.72318 1.04205,-1.31487 0.86125,-1.31487 -0.18079,-10e-6 -0.8642,0.59173 -1.51868,1.31486 z m 2.35152,1.70206 c -2.45487,2.0656 -2.5834,4.07542 -0.41058,6.41993 2.16672,2.33794 4.4239,2.24031 6.54731,-0.28316 0.93619,-1.11253 1.7021,-2.32548 1.70197,-2.69545 7e-5,-0.87528 -4.26796,-5.14337 -5.14326,-5.14334 -0.37002,-3e-5 -1.58292,0.76586 -2.69544,1.70202 z m 28.21935,-28.45733 c 2e-4,0.10974 1.1095,1.2193 2.4654,2.4654 l 2.46538,2.26565 -2.26558,-2.46542 c -2.10893,-2.29468 -2.66512,-2.76771 -2.6652,-2.26563 z m -0.35573,3.0437 c 0.23858,0.38553 0.74782,0.70133 1.1325,0.70119 0.43594,2e-5 0.38623,-0.37698 -0.13254,-1.00202 -0.90162,-1.08652 -1.70749,-0.84404 -0.9999,0.30088 z m 15.68517,26.46455 c 0.20985,0.52446 0.36718,0.36716 0.39721,-0.39721 0.0283,-0.69307 -0.12689,-1.08133 -0.34528,-0.86291 -0.21854,0.21853 -0.24181,0.78554 -0.0519,1.26013 z m -82.18395,2.99955 c 0.16292,0.63345 0.30073,0.11507 0.30066,-1.1505 0,-1.26558 -0.13525,-1.78333 -0.30079,-1.15048 -0.16547,0.63274 -0.16533,1.66824 0,2.30102 z m 80.20518,-0.0125 c 0.16475,0.6402 0.3138,0.2757 0.3274,-0.80926 0.0132,-1.08479 -0.12294,-1.60818 -0.30282,-1.16314 -0.18019,0.44516 -0.19105,1.33266 -0.0243,1.97234 z m -78.43712,-0.84808 c -1.4e-4,0.15948 0.29578,0.4728 0.65744,0.69623 0.36165,0.22346 0.65744,0.093 0.65744,-0.28991 6e-5,-0.38298 -0.29585,-0.69625 -0.65738,-0.69625 -0.36165,0 -0.6575,0.13052 -0.6575,0.28993 z M 85.154045,262.01794 c -3.02137,2.4597 -7.1784,8.30323 -7.76561,10.91659 -0.25455,1.13251 -0.0464,2.01697 0.59954,2.55346 0.75586,0.62731 11.87181,0.94641 47.164885,1.35396 25.39678,0.29329 50.31777,0.53933 55.38,0.54678 l 9.20414,0.0136 6.90316,-8.63549 c 3.79672,-4.74959 6.97933,-8.81446 7.07265,-9.0331 0.0934,-0.21853 -25.94121,-0.28498 -57.85462,-0.14746 l -58.024135,0.25005 -2.67991,2.18162 z m 161.301445,-1.38989 c -19.47748,3.72658 -36.77347,18.44865 -45.13371,38.417 l -2.38066,5.68611 v 14.79236 14.7924 l 2.17192,5.25952 c 6.4272,15.56438 16.5147,26.5834 30.69998,33.53505 11.09341,5.43644 19.97698,7.10964 32.19513,6.06392 20.35536,-1.74211 40.92214,-17.01299 48.97931,-36.36742 8.97924,-21.56905 4.56082,-46.97691 -11.04631,-63.5213 -9.25225,-9.80788 -19.76692,-15.92559 -31.99671,-18.61653 -5.30093,-1.16639 -17.4962,-1.18773 -23.48902,-0.0412 z m 23.39369,15.23107 c 7.89294,1.91071 17.73307,8.39862 23.09009,15.22408 6.77239,8.62876 9.54837,16.89707 9.54844,28.44038 -6e-5,12.92821 -3.78068,22.63184 -12.16263,31.21718 -5.38698,5.5177 -10.47364,8.74461 -17.7572,11.26488 -7.41132,2.56457 -18.86915,2.98695 -26.23173,0.96706 -13.58405,-3.72674 -23.75265,-12.24158 -29.90421,-25.04087 l -2.3698,-4.93079 v -13.54023 -13.54024 l 3.07219,-6.18293 c 6.34842,-12.77669 17.37746,-21.45175 30.45306,-23.95354 6.2667,-1.19902 17.15034,-1.16234 22.26179,0.075 z m -20.22216,8.14665 c -14.31505,3.66113 -24.70409,14.49851 -27.74605,28.94342 -3.70986,17.61615 8.61184,37.09479 26.39543,41.72682 4.74571,1.23614 13.95786,1.29357 18.38434,0.11468 18.07836,-4.8149 30.48573,-23.50241 27.32951,-41.16318 -2.304,-12.89228 -13.35672,-25.49045 -25.68941,-29.28129 -1.98869,-0.61127 -3.91176,-1.20684 -4.27327,-1.32339 -2.09574,-0.67574 -10.03377,-0.13392 -14.40055,0.98294 z m 11.44207,26.77632 c 1.86758,0.67954 4.57321,3.70359 5.30934,5.93428 2.26244,6.8553 -4.05942,13.28374 -11.17836,11.3668 -4.49537,-1.21066 -6.5329,-4.77246 -6.02424,-10.53191 0.43174,-4.88985 6.91593,-8.58029 11.89318,-6.76916 z m -5.21251,4.44383 c -3.05249,1.57848 -3.60814,4.8651 -1.24736,7.3781 2.89628,3.08292 7.77475,1.07348 7.77467,-3.20246 0,-2.19832 -2.15291,-5.13752 -3.76311,-5.13748 -0.49735,-5e-5 -1.74122,0.4328 -2.7642,0.96184 z m 30.19509,-28.36856 c 5.9e-4,0.11339 0.96151,1.07464 2.13675,2.13669 l 2.13666,1.93094 -1.93102,-2.13668 c -1.79993,-1.99167 -2.34231,-2.43886 -2.34239,-1.93095 z m -1.97224,1.31492 c 5.8e-4,0.1134 0.93796,1.07461 2.08441,2.13663 l 2.0844,1.93094 -1.47173,-2.13665 c -1.20798,-1.75377 -2.69708,-2.81987 -2.69708,-1.93093 z m -55.92375,2.5013 c -0.90245,1.68683 -0.48473,1.55376 1.39069,-0.4425 1.17609,-1.25233 1.28456,-1.56738 0.42503,-1.23754 -0.63429,0.24341 -1.45136,0.99948 -1.81572,1.68004 z m 0.69893,60.63385 c 7e-5,0.1248 0.66558,0.79038 1.47924,1.47922 l 1.47923,1.25241 -1.25249,-1.47922 c -1.17695,-1.39013 -1.70598,-1.77853 -1.70598,-1.25241 z m 477.02674,-85.27207 c -0.34621,0.9023 -0.24989,0.94299 0.5871,0.24821 1.14077,-0.94678 1.25957,-1.32733 0.41416,-1.32736 -0.32293,-10e-6 -0.77346,0.48566 -1.00126,1.07915 z m 117.4756,-0.0246 c 0.21846,0.21849 0.7855,0.2418 1.26004,0.0519 0.52443,-0.2099 0.36864,-0.36582 -0.39722,-0.39719 -0.693,-0.0286 -1.08136,0.12682 -0.86289,0.3453 z m 2.69339,2.55085 c -0.2086,0.54387 1.32796,3.85725 3.4722,7.48715 2.11557,3.58135 4.32858,7.39336 4.91758,8.47133 1.4411,2.63804 1.33229,2.62934 42.97759,3.43179 19.16426,0.36933 37.72875,0.79149 41.25426,0.93833 l 6.41003,0.26694 0.007,-2.40329 c 0,-1.3219 0.41848,-3.19765 0.92489,-4.16837 0.88558,-1.69741 0.84396,-1.79189 -1.08825,-2.46544 -3.01081,-1.04953 -3.73674,-0.87501 -4.60785,1.10763 -1.07485,2.4465 -1.66378,2.7723 -5.0323,2.78401 -2.11084,0.007 -3.53747,-0.46231 -5.25951,-1.73155 -3.55666,-2.62124 -8.60883,-7.6353 -8.60896,-8.54383 0,-1.6846 -3.45129,-2.07793 -25.31138,-2.88472 -10.12454,-0.37367 -20.33133,-0.99387 -22.68162,-1.37823 -2.3504,-0.38436 -5.60465,-0.92676 -7.23182,-1.20527 -1.62709,-0.27858 -6.73986,-0.54592 -11.36139,-0.59429 -6.87956,-0.0719 -8.4709,0.089 -8.7774,0.88788 z m 48.58674,0.73638 c 0.21852,0.21849 0.78556,0.24176 1.26017,0.0518 0.52437,-0.20986 0.36855,-0.36575 -0.39729,-0.39715 -0.693,-0.0286 -1.08134,0.12687 -0.86288,0.34527 z m -742.93077,9.93416 c 0.98777,0.14992 2.76292,0.153 3.94468,0.007 1.18155,-0.1463 0.3731,-0.26934 -1.79632,-0.27276 -2.16942,-0.003 -3.13632,0.11601 -2.14836,0.26608 z M 77.643735,281.8 c 0,0.58599 1.35307,5.24559 3.00691,10.35474 2.43574,7.5256 3.06748,10.47502 3.32723,15.53492 0.43702,8.51316 0.51262,8.74555 3.36832,10.35055 3.22046,1.81 7.82879,2.35082 37.961865,4.45517 23.73284,1.65743 41.74722,3.56164 46.31576,4.89588 2.87073,0.83841 3.06396,0.52823 3.62752,-5.82319 0.97467,-10.98199 4.4713,-23.92069 9.48038,-35.08081 1.09556,-2.44073 1.7823,-4.47889 1.52618,-4.52911 -1.81766,-0.3568 -44.60302,-0.99559 -73.60551,-1.09881 -31.888675,-0.11352 -35.008655,-0.0297 -35.008655,0.94066 z m 388.110665,8.30318 c 0.18236,0.45199 0.33161,0.0822 0.33161,-0.8218 -10e-6,-0.904 -0.14923,-1.2738 -0.33161,-0.8218 -0.18237,0.452 -0.18237,1.1916 0,1.6436 z m 407.38983,-0.18499 c 0,0.35025 0.44397,0.4663 0.98616,0.25815 0.54245,-0.20817 0.98616,-0.49467 0.98622,-0.63682 6e-5,-0.14207 -0.44475,-0.2567 -0.98629,-0.2581 -0.54238,2e-5 -0.98616,0.28658 -0.98609,0.63676 z m 57.37471,6.41603 c 0.14234,1.36399 0.26128,0.40906 0.26409,-2.12202 0,-2.53116 -0.11351,-3.64721 -0.25876,-2.48008 -0.1453,1.16712 -0.1476,3.23802 -0.006,4.60206 z m -16.45687,-5.28623 c 0.62859,0.16433 1.81197,0.17051 2.62975,0.0133 0.81781,-0.15726 0.30348,-0.29188 -1.14289,-0.2992 -1.44636,-0.007 -2.11544,0.12134 -1.48686,0.28592 z m -76.41951,0.71342 c 0,0.27922 0.7429,4.05131 1.65097,8.38236 0.90804,4.33103 1.84076,11.05498 2.07276,14.9421 l 0.42175,7.06744 8.28187,0.002 c 4.55507,6.3e-4 22.8832,0.31526 40.72923,0.69849 17.84604,0.38332 32.58804,0.55611 32.76009,0.38408 0.17206,-0.17196 -0.20065,-1.09621 -0.82804,-2.0539 -1.08951,-1.66275 -1.07707,-2.07212 0.2756,-9.09681 1.22271,-6.3495 2.84112,-18.34292 2.51346,-18.6269 -0.0611,-0.0518 -13.12701,-0.43776 -29.03696,-0.85646 -15.91001,-0.41874 -31.58997,-0.83285 -34.8443,-0.92031 -15.37361,-0.41335 -23.9965,-0.38519 -23.99643,0.0783 z m 88.96245,16.05157 c 0.20986,0.52442 0.36718,0.36712 0.39722,-0.39724 0.0283,-0.69306 -0.12687,-1.08134 -0.34528,-0.86288 -0.21852,0.21845 -0.2418,0.78551 -0.0519,1.26008 z m -245.22855,7.60155 c 0.1629,0.63345 0.30058,0.11508 0.30058,-1.15048 0,-1.26558 -0.13532,-1.78332 -0.30078,-1.1505 -0.16548,0.63277 -0.16536,1.66825 0,2.30104 z m 243.25625,2.91744 c 0.20986,0.52447 0.36711,0.36719 0.39722,-0.39725 0.0282,-0.69303 -0.12682,-1.08134 -0.34529,-0.8629 -0.21847,0.21846 -0.24181,0.78546 -0.0519,1.26011 z m -554.26454,-0.98498 c 0.63274,0.16546 1.66826,0.16536 2.30104,-1e-5 0.63275,-0.16546 0.11505,-0.30066 -1.15053,-0.30065 -1.26556,0 -1.7833,0.1353 -1.15051,0.30065 z m 462.22322,1.6424 c 0.20979,0.52447 0.36711,0.36717 0.39716,-0.39721 0.0282,-0.69306 -0.12682,-1.08138 -0.34529,-0.8629 -0.21847,0.21846 -0.2418,0.78551 -0.0519,1.26012 z m -346.52174,-0.98644 c 0.62863,0.16435 1.81197,0.1705 2.62975,0.0133 0.81779,-0.15724 0.30351,-0.29189 -1.14286,-0.29915 -1.44636,-0.007 -2.11548,0.12136 -1.48689,0.28592 z m -290.54258,2.00118 c 0.16669,0.63969 0.3141,0.27548 0.32746,-0.80929 0.013,-1.08476 -0.12301,-1.60814 -0.30306,-1.16302 -0.17988,0.44518 -0.1911,1.33264 -0.0242,1.97234 z m 136.98537,0.66993 c -0.21196,1.35597 -0.58804,5.20199 -0.83576,8.5467 l -0.45043,6.0813 H 506.61913 682.012 l -0.33904,-5.9456 c -0.18645,-3.2701 -0.52116,-6.1278 -0.74382,-6.35043 -1.25835,-1.25839 -35.72009,-1.75576 -243.31091,-3.5117 -44.46087,-0.37611 -80.97335,-0.81922 -81.13883,-0.98474 -0.16555,-0.1655 -5.53905,-0.30091 -11.94126,-0.30091 l -11.64027,10e-6 z m -12.70939,-0.32872 c 0.18237,0.452 0.33167,0.0822 0.33162,-0.8218 5e-5,-0.90397 -0.14922,-1.27379 -0.33159,-0.82179 -0.18237,0.45197 -0.18235,1.1916 -3e-5,1.64359 z m 281.32597,-1.00833 c 0.99437,0.15062 2.62151,0.15062 3.6159,0 0.99437,-0.15065 0.18082,-0.27386 -1.80795,-0.27386 -1.98875,-5e-5 -2.80236,0.12321 -1.80795,0.27386 z m 82.21733,5.92659 c 0.16474,0.64022 0.31398,0.27548 0.32739,-0.80927 0.0132,-1.08478 -0.12301,-1.60814 -0.30282,-1.1631 -0.18007,0.44514 -0.19105,1.33265 -0.0243,1.97233 z m -555.73733,-0.48058 c 1e-4,0.36163 0.27839,0.65749 0.61874,0.65748 0.34018,1e-5 0.80151,-0.29583 1.02518,-0.65718 0.22327,-0.36172 -0.0547,-0.65746 -0.61876,-0.65752 -0.56365,7e-5 -1.02497,0.29587 -1.02487,0.65774 z m 762.79289,0.47095 c 0.99444,0.15063 2.62154,0.15063 3.61592,3e-5 0.99436,-0.15066 0.18086,-0.27393 -1.80795,-0.27393 -1.98876,-2e-5 -2.80227,0.12323 -1.80797,0.2739 z m -54.73172,9.74003 c 0,7.1226 0.18814,8.96819 0.94355,9.25813 0.51891,0.19917 3.90123,-0.40171 7.51604,-1.3352 11.8033,-3.04809 15.9641,-3.70924 33.49009,-5.32187 19.46235,-1.79082 23.2146,-2.35316 30.69725,-4.60057 5.29357,-1.58983 8.24684,-3.14227 7.46508,-3.92404 -1.45308,-1.45307 -15.70694,-2.01416 -72.71576,-2.86248 l -7.3962,-0.11009 z m -652.62793,-6.14307 c 0.20985,0.5245 0.36579,0.36856 0.39723,-0.39715 0.0287,-0.69309 -0.12689,-1.08135 -0.34546,-0.86292 -0.21846,0.21848 -0.24166,0.7855 -0.0519,1.26011 z m 688.96513,10.79298 c 0.2184,0.21847 0.7855,0.24182 1.26004,0.0519 0.52443,-0.20985 0.36856,-0.36575 -0.39716,-0.39721 -0.69306,-0.0286 -1.08129,0.12683 -0.86288,0.34531 z m -261.36534,44.13522 c -1.72849,0.13588 -4.39111,0.13422 -5.91698,-0.003 -1.52584,-0.13788 -0.11167,-0.24904 3.14268,-0.24705 3.25431,0.002 4.50274,0.1148 2.77428,0.25069 z"
     id="path25"
     inkscape:connector-curvature="0" />
</svg>
